<svg xmlns="http://www.w3.org/2000/svg" width="213.01" height="81.18" fill="#fff"><path d="M0 0v51.52h213V0zm2.86 2.66h207.28v46.2H2.86z"/><path d="M26.6 25.43a5.37 5.37 0 003.86-5.25 5.13 5.13 0 00-1.81-4 8.68 8.68 0 00-5.82-1.75h-8.34v2.44h2.1v17.72h-2.1V37h8.75c4.78 0 7.87-2.45 7.87-6.23 0-2.7-1.52-4.5-4.51-5.37m-7.3-8.64h3.46c3.17 0 5 1.33 5 3.63 0 2.5-1.9 3.94-5.23 3.94H19.3zm4 17.84h-4v-8h3.29c3.69 0 5.81 1.47 5.81 4s-1.95 4-5.09 4M104.06 34.6V16.83h2.17v-2.44h-4.79l-8.11 15.13-8.07-15.07-.02-.06h-4.85v2.44h2.18l-.01 17.77h-2.17v2.43h7.02V34.6h-2.09V19.36l7.55 14.44.02.06h.8l7.62-14.5.01 15.24h-2.11v2.43h7.01V34.6h-2.16zM118.28 14.39h-8v2.44h2.1V34.6h-2.1V37h7.11v-2.4h-2.27v-5.72c.67 0 1.89.07 3.08.07 5.2 0 8.43-2.84 8.43-7.4 0-4.22-3.45-7.16-8.39-7.16m.1 12.15c-1.68 0-2.81 0-3.22-.06v-9.65h3.15c3.36 0 5.61 1.91 5.61 4.75 0 3.06-2.12 5-5.54 5M129.64 14.39v5.2h2.6v-2.86h5.45V34.6h-2.26v2.43h7.27V34.6h-2.27V16.73h5.45v2.86h2.61v-5.2h-18.85zM66.08 14a11.73 11.73 0 1011.73 11.71A11.73 11.73 0 0066.08 14m0 20.72a9 9 0 119-9 9 9 0 01-9 9M162.09 14a11.73 11.73 0 1011.73 11.73A11.74 11.74 0 00162.09 14m0 20.72a9 9 0 119-9 9 9 0 01-9 9M51.6 34.59A1.69 1.69 0 0150 33.5L47.26 28a2.62 2.62 0 00-.91-1 6.36 6.36 0 004.29-6c0-4-3.24-6.61-8.25-6.61h-7.86v2.44h2.1v17.76h-2.1V37h7v-2.41h-2.15v-6.73c.56 0 1.37.05 2.11.06h.42c1.26 0 2.31.17 2.89 1.24l3.08 6.15c.74 1.49.8 1.72 2.57 1.72h2v-2.44zm-12.22-9.14v-8.62h2.87c3.59 0 5.64 1.54 5.64 4.24s-2.25 4.45-5.89 4.45c-1.07 0-2 0-2.63-.07M191.36 14.39v2.44h2.35V31.3l-12.8-16.87-.03-.04h-4.47v2.44h2.11v17.76h-2.11v2.44h6.92v-2.44h-2.16V19.2l13.53 17.83h1.62v-20.2h2.1v-2.44h-7.06zM44.47 79.07c1.75 0 3.76-.28 3.76-3 0-2.16-1.53-3.22-3.68-3.22h-5.88v6.23zM44 70.8c1.59 0 3.67-.3 3.67-2.81 0-1.47-.84-2.61-3.06-2.61h-5.94v5.42zm-7.56-7.53H45c2.56 0 5.14 1.6 5.14 4.59a3.92 3.92 0 01-2.74 3.89 4.27 4.27 0 013.28 4.48c0 4-3.38 5-5.61 5h-8.66zM57.21 63.27h2.41v17.91h-2.41zM77.84 81.18l-6.29-8.83-2.54 2.59v6.24h-2.38V63.27h2.38v8.75l8.5-8.75h2.94l-7.26 7.41 7.56 10.5h-2.91zM85.86 81.18V63.27h12.33v2.11H88.14v5.53h8.73v2.08h-8.73v6.11h10.35v2.08H85.86zM125.23 81.18v-8.19h-9.74v8.19h-2.35V63.27h2.35v7.61h9.74v-7.61h2.41v17.91h-2.41zM134.93 63.27h2.41v17.91h-2.41zM152.23 71.57c2.06 0 3.91-.61 3.91-3.07 0-2-1.29-3.25-3.58-3.25H147v6.32zm4.24 9.61l-4.9-7.61H147v7.61h-2.34V63.27h8.07c3.42 0 5.81 1.63 5.81 5.23a4.57 4.57 0 01-4.21 4.92l5 7.76zM165.18 81.18V63.27h12.32v2.11h-10.04v5.53h8.73v2.08h-8.73v6.11h10.35v2.08h-12.63z"/></svg>